<?xml version="1.0" encoding="utf-8"?>
<!-- Generator: Adobe Illustrator 16.0.0, SVG Export Plug-In . SVG Version: 6.00 Build 0)  -->
<!DOCTYPE svg PUBLIC "-//W3C//DTD SVG 1.1//EN" "http://www.w3.org/Graphics/SVG/1.1/DTD/svg11.dtd">
<svg version="1.1" id="Layer_1" xmlns="http://www.w3.org/2000/svg" xmlns:xlink="http://www.w3.org/1999/xlink" x="0px" y="0px"
	 width="200px" height="70px" viewBox="0 0 200 70" enable-background="new 0 0 200 70" xml:space="preserve">
<g>
	<path fill="#26536E" stroke="#26536E" stroke-width="0.465" stroke-miterlimit="10" d="M6.563,44.875
		c-0.089,0.607-0.202,1.173-0.336,1.702c-0.135,0.529-0.265,0.988-0.389,1.38c-0.123,0.396-0.229,0.718-0.319,0.962
		c-0.09,0.248-0.146,0.383-0.169,0.405c-0.225,0.517-0.617,0.776-1.179,0.776c-0.315,0-0.606-0.118-0.876-0.355
		c-0.271-0.237-0.405-0.53-0.405-0.894c0-0.136,0.022-0.237,0.068-0.304c0.043-0.067,0.111-0.201,0.201-0.405
		c0.09-0.202,0.202-0.536,0.338-1.008c0.135-0.473,0.303-1.204,0.505-2.192c-0.383,0-0.775-0.009-1.18-0.032
		c-0.404-0.024-0.782-0.102-1.129-0.237c-0.349-0.134-0.636-0.348-0.86-0.642c-0.225-0.289-0.337-0.695-0.337-1.212
		c0-0.382,0.106-0.899,0.32-1.551c0.214-0.65,0.501-1.292,0.859-1.92c0.359-0.629,0.764-1.174,1.214-1.636
		c0.449-0.461,0.898-0.69,1.348-0.69c0.518,0,0.938,0.189,1.265,0.572c0.326,0.382,0.579,0.849,0.758,1.398
		c0.18,0.551,0.31,1.128,0.388,1.735c0.079,0.608,0.118,1.137,0.118,1.586c0.382,0,0.758-0.006,1.129-0.018s0.725-0.018,1.063-0.018
		c1.28,0,2.259,0.281,2.933,0.844c0.674,0.561,1.011,1.483,1.011,2.764c0,0.516-0.033,1.056-0.101,1.619
		c-0.067,0.563-0.146,1.138-0.236,1.732c-0.09,0.6-0.168,1.187-0.236,1.773c-0.067,0.582-0.101,1.156-0.101,1.715
		c0,0.811,0.111,1.481,0.337,2.008c0.224,0.528,0.506,0.95,0.842,1.265c0.337,0.315,0.697,0.533,1.079,0.657
		c0.383,0.124,0.73,0.186,1.045,0.186c0.966,0,1.876-0.315,2.73-0.944c0.854-0.629,1.64-1.387,2.359-2.277
		c0.72-0.886,1.365-1.822,1.938-2.811c0.572-0.988,1.051-1.856,1.432-2.6c0.113-0.201,0.271-0.358,0.473-0.469
		c0.201-0.113,0.416-0.168,0.64-0.168c0.405,0,0.72,0.129,0.944,0.384c0.225,0.262,0.338,0.55,0.338,0.862
		c0,0.226-0.046,0.428-0.136,0.606c-0.517,0.922-1.118,1.959-1.804,3.116c-0.685,1.158-1.466,2.241-2.342,3.254
		c-0.876,1.011-1.86,1.865-2.949,2.563c-1.091,0.697-2.287,1.044-3.59,1.044c-0.81,0-1.573-0.151-2.292-0.454
		s-1.343-0.743-1.871-1.315c-0.529-0.573-0.95-1.281-1.264-2.123c-0.315-0.843-0.473-1.791-0.473-2.85
		c0-1.123,0.112-2.24,0.337-3.354s0.338-2.172,0.338-3.185c0-0.428-0.096-0.748-0.287-0.96c-0.19-0.213-0.612-0.319-1.264-0.319
		c-0.315,0-0.657,0-1.028,0S6.992,44.852,6.563,44.875z M4.307,42.381c0-0.157-0.007-0.364-0.017-0.623
		c-0.013-0.26-0.033-0.512-0.067-0.759c-0.035-0.248-0.079-0.462-0.136-0.642C4.03,40.18,3.97,40.089,3.902,40.089
		s-0.152,0.084-0.253,0.252c-0.102,0.169-0.209,0.371-0.32,0.607c-0.113,0.236-0.215,0.488-0.304,0.759
		c-0.091,0.269-0.157,0.494-0.202,0.674H4.307z"/>
	<path fill="#26536E" stroke="#26536E" stroke-width="0.465" stroke-miterlimit="10" d="M35.147,54.952
		c-0.786,1.282-1.701,2.293-2.747,3.036c-1.045,0.74-2.096,1.11-3.15,1.11c-0.854,0-1.619-0.157-2.293-0.472
		c-0.675-0.314-1.259-0.757-1.754-1.331c-0.493-0.572-0.869-1.265-1.128-2.072c-0.259-0.811-0.388-1.72-0.388-2.732
		c0-1.57,0.151-2.966,0.454-4.18c0.304-1.211,0.637-2.228,0.995-3.048c0.359-0.821,0.854-1.658,1.483-2.512
		c0.113-0.134,0.253-0.235,0.421-0.303c0.169-0.068,0.343-0.103,0.523-0.103c0.358,0,0.657,0.131,0.893,0.388
		c0.235,0.259,0.354,0.557,0.354,0.895c0,0.135-0.028,0.269-0.085,0.402c-0.057,0.136-0.117,0.271-0.186,0.406
		c-0.112,0.201-0.292,0.512-0.539,0.926c-0.247,0.416-0.506,0.962-0.774,1.636c-0.271,0.676-0.506,1.465-0.709,2.375
		c-0.202,0.912-0.303,1.951-0.303,3.117c0,1.328,0.264,2.334,0.792,3.019c0.527,0.688,1.275,1.027,2.242,1.027
		c0.404,0,0.869-0.127,1.397-0.388c0.529-0.256,1.045-0.658,1.551-1.197c0.505-0.539,0.949-1.224,1.332-2.056
		c0.383-0.83,0.628-1.809,0.741-2.93l0.506-5.8c0.045-0.337,0.19-0.618,0.438-0.842c0.248-0.225,0.539-0.337,0.878-0.337
		c0.38,0,0.684,0.14,0.91,0.422c0.224,0.281,0.337,0.601,0.337,0.96L36.9,49.967c-0.044,0.472-0.027,1.088,0.052,1.853
		c0.077,0.763,0.241,1.515,0.488,2.258c0.247,0.74,0.617,1.377,1.112,1.903c0.494,0.53,1.146,0.792,1.954,0.792
		c0.585,0,1.158-0.15,1.72-0.453c0.562-0.305,1.101-0.702,1.618-1.197c0.516-0.492,0.994-1.051,1.433-1.671
		c0.438-0.614,0.843-1.24,1.213-1.866c0.371-0.631,0.69-1.232,0.96-1.807c0.27-0.573,0.495-1.063,0.675-1.467
		c0.112-0.243,0.269-0.438,0.472-0.57c0.202-0.135,0.428-0.203,0.675-0.203c0.404,0,0.719,0.137,0.943,0.402
		c0.225,0.27,0.337,0.566,0.337,0.879c0,0.18-0.033,0.348-0.101,0.505c-0.091,0.182-0.265,0.557-0.523,1.131
		c-0.258,0.571-0.595,1.224-1.011,1.952c-0.415,0.733-0.915,1.501-1.5,2.309c-0.585,0.811-1.236,1.559-1.955,2.243
		c-0.719,0.686-1.499,1.246-2.342,1.687c-0.843,0.438-1.748,0.655-2.714,0.655c-1.326,0-2.427-0.376-3.303-1.128
		C36.227,57.421,35.575,56.348,35.147,54.952z"/>
	<path fill="#26536E" stroke="#26536E" stroke-width="0.465" stroke-miterlimit="10" d="M70.17,49.392
		c-0.136,0.248-0.366,0.697-0.691,1.351c-0.326,0.65-0.764,1.386-1.315,2.204c-0.55,0.821-1.207,1.67-1.972,2.545
		c-0.764,0.878-1.64,1.683-2.628,2.41c-0.99,0.733-2.097,1.332-3.321,1.805c-1.226,0.473-2.556,0.709-3.994,0.709
		c-1.279,0-2.416-0.231-3.404-0.692c-0.988-0.462-1.831-1.111-2.528-1.954c-0.695-0.844-1.224-1.838-1.584-2.985
		c-0.359-1.146-0.539-2.413-0.539-3.807c0-1.35,0.191-2.614,0.573-3.791c0.382-1.181,0.904-2.209,1.567-3.086
		c0.662-0.876,1.433-1.567,2.309-2.072s1.81-0.759,2.798-0.759c0.741,0,1.415,0.131,2.021,0.388
		c0.607,0.259,1.118,0.602,1.534,1.028s0.742,0.899,0.979,1.415c0.235,0.519,0.354,1.035,0.354,1.552
		c0,0.495-0.063,0.955-0.186,1.382c-0.123,0.426-0.282,0.803-0.473,1.128c-0.189,0.329-0.409,0.584-0.656,0.773
		c-0.248,0.195-0.494,0.287-0.742,0.287c-0.382,0-0.691-0.121-0.928-0.37c-0.236-0.243-0.353-0.549-0.353-0.911
		c0-0.175,0.04-0.334,0.116-0.471c0.079-0.134,0.17-0.274,0.271-0.42c0.102-0.146,0.192-0.326,0.27-0.54
		c0.079-0.212,0.118-0.488,0.118-0.825c0-0.472-0.219-0.9-0.658-1.282c-0.438-0.381-0.993-0.572-1.667-0.572
		c-0.629,0-1.23,0.191-1.804,0.572c-0.573,0.382-1.073,0.894-1.499,1.535c-0.427,0.64-0.771,1.394-1.028,2.256
		c-0.259,0.869-0.388,1.782-0.388,2.75c0,0.922,0.112,1.797,0.337,2.627c0.225,0.834,0.562,1.567,1.011,2.209
		c0.451,0.641,1.017,1.151,1.703,1.533c0.685,0.381,1.5,0.574,2.443,0.574c1.213,0,2.337-0.221,3.371-0.658
		c1.033-0.438,1.977-0.994,2.831-1.67c0.854-0.674,1.607-1.409,2.257-2.205c0.652-0.799,1.209-1.55,1.67-2.26
		c0.461-0.706,0.82-1.324,1.079-1.855c0.258-0.525,0.409-0.859,0.455-0.993c0.089-0.224,0.24-0.397,0.455-0.521
		c0.213-0.125,0.442-0.186,0.69-0.186c0.383,0,0.691,0.137,0.927,0.402c0.236,0.27,0.354,0.573,0.354,0.911
		C70.305,48.985,70.259,49.167,70.17,49.392z"/>
	<path fill="#26536E" stroke="#26536E" stroke-width="0.465" stroke-miterlimit="10" d="M70.54,55.862
		c0.36-0.764,0.775-1.588,1.247-2.478c0.473-0.887,0.978-1.796,1.517-2.729s1.112-1.86,1.72-2.782
		c0.606-0.92,1.235-1.785,1.887-2.593c0.652-0.788,1.309-1.354,1.973-1.703c0.662-0.349,1.286-0.523,1.871-0.523
		c0.583,0,1.095,0.118,1.533,0.355c0.438,0.235,0.799,0.555,1.078,0.96c0.281,0.405,0.494,0.875,0.641,1.415s0.22,1.125,0.22,1.753
		c0,0.518-0.051,1.207-0.152,2.072c-0.102,0.864-0.151,1.771-0.151,2.714c0,0.539,0.028,1.073,0.084,1.601
		c0.056,0.528,0.156,1,0.304,1.416c0.146,0.416,0.365,0.754,0.656,1.011c0.293,0.26,0.675,0.389,1.146,0.389
		c0.539,0,1.079-0.153,1.618-0.456c0.541-0.304,1.067-0.707,1.585-1.213c0.516-0.506,1.01-1.067,1.482-1.687
		c0.472-0.618,0.899-1.233,1.28-1.851c0.384-0.619,0.719-1.214,1.012-1.789c0.293-0.573,0.527-1.051,0.709-1.434
		c0.223-0.514,0.617-0.773,1.179-0.773c0.382,0,0.685,0.137,0.91,0.402c0.225,0.27,0.338,0.566,0.338,0.879
		c0,0.18-0.035,0.348-0.102,0.505c-0.091,0.182-0.265,0.552-0.522,1.114c-0.26,0.56-0.606,1.213-1.046,1.953
		c-0.438,0.741-0.948,1.517-1.533,2.324c-0.584,0.811-1.231,1.559-1.938,2.243c-0.709,0.686-1.474,1.246-2.293,1.687
		c-0.819,0.438-1.68,0.655-2.578,0.655c-1.033,0-1.865-0.218-2.495-0.655c-0.628-0.44-1.117-0.996-1.467-1.67
		c-0.347-0.674-0.582-1.426-0.707-2.26c-0.123-0.829-0.185-1.638-0.185-2.426c0-0.401,0.016-0.836,0.049-1.296
		c0.035-0.461,0.075-0.917,0.119-1.367c0.045-0.446,0.084-0.868,0.117-1.265c0.034-0.393,0.052-0.723,0.052-0.991
		c0-0.698-0.095-1.171-0.288-1.417c-0.19-0.247-0.409-0.37-0.655-0.37c-0.36,0-0.771,0.209-1.23,0.622
		c-0.462,0.416-0.943,0.961-1.449,1.634c-0.506,0.674-1.012,1.433-1.517,2.277c-0.507,0.843-0.995,1.681-1.468,2.511
		c-0.472,0.831-0.898,1.624-1.281,2.375c-0.382,0.754-0.695,1.379-0.943,1.871c-0.471,0.945-0.949,1.579-1.432,1.906
		c-0.484,0.326-0.916,0.488-1.297,0.488c-0.697,0-1.231-0.275-1.603-0.826s-0.556-1.217-0.556-2.006v-2.123
		c0-4.247,0.005-8.297,0.018-12.152c0.011-3.853,0.066-7.437,0.167-10.752c0.103-3.313,0.271-6.313,0.507-9
		c0.235-2.685,0.59-4.976,1.062-6.876c0.472-1.898,1.072-3.365,1.804-4.398c0.729-1.032,1.646-1.55,2.746-1.55
		c0.943,0,1.741,0.258,2.393,0.774c0.652,0.518,1.181,1.219,1.586,2.107c0.403,0.887,0.695,1.92,0.876,3.1
		c0.179,1.181,0.27,2.423,0.27,3.726c0,2.651-0.242,5.252-0.725,7.804c-0.483,2.55-1.129,5.039-1.938,7.465
		c-0.809,2.428-1.753,4.793-2.831,7.096c-1.079,2.303-2.214,4.544-3.404,6.723c0,0.404,0,0.89,0,1.449c0,0.563,0,1.126,0,1.688
		c0,0.561,0,1.089,0,1.582c0,0.495,0,0.889,0,1.18L70.54,55.862z M70.54,43.426c0.944-2.066,1.804-4.085,2.578-6.051
		c0.775-1.966,1.439-3.927,1.989-5.882c0.551-1.954,0.982-3.938,1.298-5.949c0.314-2.01,0.472-4.105,0.472-6.286
		c0-0.358-0.017-0.932-0.051-1.719s-0.135-1.585-0.304-2.394c-0.168-0.809-0.426-1.517-0.774-2.122
		c-0.349-0.607-0.836-0.91-1.467-0.91c-0.494,0-0.921,0.33-1.281,0.994c-0.359,0.662-0.673,1.562-0.942,2.695
		c-0.271,1.134-0.496,2.456-0.675,3.962c-0.18,1.505-0.326,3.1-0.438,4.785s-0.196,3.415-0.253,5.192
		c-0.057,1.774-0.095,3.499-0.117,5.173c-0.023,1.674-0.034,3.241-0.034,4.701C70.54,41.077,70.54,42.347,70.54,43.426z"/>
	<path fill="#26536E" stroke="#26536E" stroke-width="0.465" stroke-miterlimit="10" d="M99.291,32.269
		c0,0.854-0.296,1.579-0.894,2.174c-0.594,0.597-1.318,0.895-2.172,0.895c-0.854,0-1.579-0.298-2.174-0.895
		c-0.597-0.595-0.895-1.319-0.895-2.174c0-0.426,0.08-0.826,0.236-1.196s0.375-0.696,0.658-0.978c0.28-0.28,0.605-0.5,0.977-0.657
		c0.371-0.158,0.769-0.235,1.197-0.235c0.427,0,0.826,0.077,1.196,0.235c0.371,0.157,0.696,0.377,0.976,0.657
		c0.283,0.281,0.501,0.607,0.657,0.978C99.214,31.442,99.291,31.843,99.291,32.269z M93.831,52.022c0-3.239,0.203-6.463,0.606-9.676
		c0.046-0.314,0.186-0.589,0.422-0.824c0.235-0.236,0.545-0.354,0.928-0.354c0.337,0,0.618,0.128,0.843,0.387
		c0.224,0.26,0.336,0.556,0.336,0.895c0,0.133-0.026,0.539-0.083,1.213c-0.056,0.674-0.126,1.477-0.204,2.41
		c-0.077,0.934-0.145,1.92-0.201,2.964c-0.056,1.049-0.083,2.009-0.083,2.885c0,1.19,0.117,2.15,0.354,2.881
		c0.236,0.729,0.539,1.297,0.91,1.702c0.368,0.404,0.763,0.674,1.179,0.809c0.416,0.136,0.815,0.203,1.197,0.203
		c0.629,0,1.281-0.225,1.955-0.674s1.366-1.08,2.072-1.89c0.708-0.809,1.42-1.78,2.142-2.913c0.717-1.135,1.426-2.399,2.123-3.794
		c0.112-0.224,0.271-0.397,0.473-0.521c0.201-0.125,0.424-0.186,0.673-0.186c0.358,0,0.658,0.137,0.895,0.402
		c0.236,0.27,0.354,0.566,0.354,0.879c0,0.226-0.046,0.415-0.134,0.572c-0.271,0.517-0.606,1.147-1.012,1.888
		c-0.405,0.743-0.867,1.506-1.383,2.291c-0.518,0.788-1.084,1.567-1.701,2.343c-0.62,0.776-1.276,1.474-1.973,2.091
		c-0.698,0.618-1.43,1.119-2.191,1.501c-0.764,0.382-1.538,0.572-2.326,0.572c-1.012,0-1.898-0.213-2.663-0.64
		c-0.765-0.43-1.409-1.001-1.938-1.72c-0.527-0.719-0.922-1.568-1.18-2.545C93.962,54.194,93.831,53.146,93.831,52.022z
		 M97.406,32.269c0-0.313-0.119-0.59-0.354-0.826c-0.236-0.235-0.512-0.354-0.826-0.354s-0.585,0.118-0.809,0.354
		c-0.228,0.236-0.338,0.513-0.338,0.826c0,0.315,0.11,0.585,0.338,0.81c0.224,0.225,0.494,0.337,0.809,0.337s0.59-0.112,0.826-0.337
		C97.287,32.854,97.406,32.584,97.406,32.269z"/>
	<path fill="#26536E" stroke="#26536E" stroke-width="0.465" stroke-miterlimit="10" d="M111.832,44.875
		c-0.091,0.607-0.202,1.173-0.336,1.702c-0.137,0.529-0.266,0.988-0.389,1.38c-0.123,0.396-0.23,0.718-0.32,0.962
		c-0.091,0.248-0.147,0.383-0.169,0.405c-0.225,0.517-0.618,0.776-1.178,0.776c-0.316,0-0.607-0.118-0.878-0.355
		c-0.269-0.237-0.405-0.53-0.405-0.894c0-0.136,0.022-0.237,0.067-0.304c0.046-0.067,0.112-0.201,0.203-0.405
		c0.089-0.202,0.201-0.536,0.336-1.008c0.136-0.473,0.304-1.204,0.507-2.192c-0.383,0-0.775-0.009-1.18-0.032
		c-0.403-0.024-0.781-0.102-1.131-0.237c-0.349-0.134-0.636-0.348-0.858-0.642c-0.227-0.289-0.337-0.695-0.337-1.212
		c0-0.382,0.105-0.899,0.32-1.551c0.212-0.65,0.499-1.292,0.859-1.92c0.357-0.629,0.763-1.174,1.213-1.636
		c0.448-0.461,0.897-0.69,1.35-0.69c0.516,0,0.938,0.189,1.264,0.572c0.324,0.382,0.578,0.849,0.758,1.398
		c0.181,0.551,0.31,1.128,0.389,1.735c0.078,0.608,0.118,1.137,0.118,1.586c0.378,0,0.758-0.006,1.128-0.018
		c0.372-0.012,0.726-0.018,1.063-0.018c1.278,0,2.257,0.281,2.932,0.844c0.675,0.561,1.01,1.483,1.01,2.764
		c0,0.516-0.032,1.056-0.1,1.619c-0.066,0.563-0.145,1.138-0.235,1.732c-0.091,0.6-0.17,1.187-0.237,1.773
		c-0.066,0.582-0.102,1.156-0.102,1.715c0,0.811,0.112,1.481,0.339,2.008c0.225,0.528,0.504,0.95,0.843,1.265
		c0.336,0.315,0.697,0.533,1.078,0.657c0.382,0.124,0.73,0.186,1.045,0.186c0.967,0,1.876-0.315,2.728-0.944
		c0.855-0.629,1.645-1.387,2.36-2.277c0.721-0.886,1.366-1.822,1.938-2.811c0.573-0.988,1.051-1.856,1.433-2.6
		c0.114-0.201,0.271-0.358,0.472-0.469c0.202-0.113,0.418-0.168,0.642-0.168c0.403,0,0.72,0.129,0.943,0.384
		c0.225,0.262,0.337,0.55,0.337,0.862c0,0.226-0.045,0.428-0.134,0.606c-0.518,0.922-1.117,1.959-1.804,3.116
		c-0.685,1.158-1.468,2.241-2.343,3.254c-0.878,1.011-1.858,1.865-2.95,2.563c-1.088,0.697-2.285,1.044-3.59,1.044
		c-0.808,0-1.572-0.151-2.292-0.454c-0.718-0.303-1.341-0.743-1.871-1.315c-0.529-0.573-0.95-1.281-1.265-2.123
		c-0.312-0.843-0.47-1.791-0.47-2.85c0-1.123,0.11-2.24,0.336-3.354s0.338-2.172,0.338-3.185c0-0.428-0.095-0.748-0.287-0.96
		c-0.192-0.213-0.614-0.319-1.263-0.319c-0.315,0-0.657,0-1.027,0C112.658,44.843,112.259,44.852,111.832,44.875z M109.574,42.381
		c0-0.157-0.007-0.364-0.017-0.623c-0.012-0.26-0.035-0.512-0.069-0.759c-0.032-0.248-0.079-0.462-0.135-0.642
		c-0.056-0.178-0.117-0.269-0.185-0.269s-0.15,0.084-0.252,0.252c-0.103,0.169-0.21,0.371-0.32,0.607
		c-0.114,0.236-0.216,0.488-0.303,0.759c-0.091,0.269-0.158,0.494-0.203,0.674H109.574z"/>
	<path fill="#26536E" stroke="#26536E" stroke-width="0.465" stroke-miterlimit="10" d="M155.28,49.324
		c-0.091,0.182-0.275,0.557-0.556,1.131c-0.281,0.571-0.642,1.229-1.08,1.969c-0.438,0.742-0.95,1.519-1.534,2.327
		c-0.583,0.808-1.236,1.551-1.954,2.225c-0.719,0.674-1.494,1.229-2.325,1.67c-0.833,0.438-1.711,0.655-2.628,0.655
		c-1.305,0-2.401-0.414-3.287-1.246c-0.89-0.829-1.534-1.876-1.938-3.134c-0.765,1.279-1.675,2.297-2.73,3.049
		c-1.059,0.752-2.112,1.129-3.17,1.129c-0.83,0-1.584-0.15-2.258-0.453c-0.676-0.304-1.248-0.732-1.72-1.282
		c-0.473-0.549-0.836-1.196-1.096-1.938c-0.257-0.741-0.388-1.552-0.388-2.427c0-1.751,0.299-3.295,0.893-4.636
		c0.599-1.336,1.355-2.452,2.276-3.353c0.923-0.896,1.938-1.571,3.051-2.021c1.112-0.451,2.188-0.674,3.219-0.674
		c0.696,0,1.336,0.096,1.923,0.285c0.583,0.19,1.082,0.399,1.5,0.624c0.414,0.224,0.735,0.433,0.96,0.623s0.348,0.299,0.371,0.32
		c0.247,0.293,0.37,0.598,0.37,0.912c0,0.336-0.123,0.634-0.37,0.891c-0.248,0.261-0.539,0.389-0.877,0.389
		c-0.36,0-0.663-0.124-0.91-0.37c-0.046-0.045-0.147-0.129-0.304-0.254c-0.157-0.123-0.37-0.252-0.639-0.387
		c-0.271-0.135-0.591-0.253-0.961-0.354c-0.371-0.101-0.793-0.15-1.265-0.15c-0.696,0-1.438,0.158-2.226,0.472
		c-0.787,0.313-1.503,0.802-2.158,1.466c-0.648,0.664-1.196,1.493-1.634,2.492c-0.438,1-0.658,2.187-0.658,3.558
		c0,0.428,0.048,0.858,0.136,1.298c0.091,0.438,0.249,0.837,0.472,1.195c0.225,0.361,0.528,0.654,0.91,0.877
		c0.383,0.225,0.854,0.337,1.416,0.337c0.403,0,0.873-0.135,1.398-0.404c0.527-0.271,1.032-0.685,1.518-1.248
		c0.482-0.558,0.921-1.268,1.315-2.122c0.392-0.854,0.669-1.866,0.826-3.034c0.044-0.313,0.188-0.577,0.438-0.794
		c0.247-0.211,0.539-0.32,0.876-0.32c0.313,0,0.59,0.128,0.826,0.371c0.236,0.249,0.364,0.532,0.389,0.843
		c0.02,0.43,0.068,1.029,0.135,1.807c0.067,0.772,0.218,1.544,0.453,2.308c0.236,0.765,0.591,1.428,1.063,1.988
		c0.472,0.562,1.122,0.842,1.953,0.842c0.54,0,1.073-0.146,1.604-0.438c0.526-0.29,1.044-0.677,1.551-1.161
		c0.503-0.483,0.986-1.032,1.447-1.652c0.462-0.616,0.883-1.242,1.265-1.869c0.38-0.63,0.717-1.236,1.01-1.823
		c0.295-0.581,0.539-1.086,0.743-1.517c0.11-0.243,0.276-0.438,0.488-0.57c0.213-0.135,0.443-0.203,0.689-0.203
		c0.382,0,0.692,0.142,0.929,0.419c0.234,0.284,0.354,0.582,0.354,0.895C155.381,49.012,155.348,49.167,155.28,49.324z"/>
	<path fill="#26536E" stroke="#26536E" stroke-width="0.465" stroke-miterlimit="10" d="M160.74,55.729
		c0.338-0.674,0.771-1.512,1.297-2.513c0.529-0.997,1.08-2.003,1.651-3.014c0.573-1.014,1.135-1.966,1.686-2.866
		c0.553-0.898,1.017-1.583,1.398-2.055c0.652-0.788,1.326-1.349,2.023-1.687c0.698-0.338,1.337-0.505,1.923-0.505
		c0.582,0,1.083,0.121,1.499,0.37c0.415,0.247,0.758,0.577,1.028,0.993c0.27,0.417,0.471,0.901,0.606,1.45
		c0.135,0.55,0.202,1.141,0.202,1.771c0,0.359-0.017,0.832-0.05,1.412c-0.034,0.586-0.068,1.216-0.101,1.89
		c-0.035,0.675-0.069,1.368-0.103,2.089c-0.034,0.721-0.063,1.395-0.085,2.022c0.338-0.675,0.719-1.419,1.147-2.243
		c0.425-0.818,0.86-1.632,1.298-2.44c0.438-0.812,0.859-1.569,1.264-2.277c0.405-0.706,0.775-1.286,1.111-1.735
		c0.967-1.323,1.869-2.212,2.712-2.663c0.843-0.447,1.591-0.674,2.243-0.674c0.765,0,1.392,0.141,1.888,0.422
		c0.494,0.281,0.883,0.641,1.163,1.079c0.279,0.438,0.477,0.927,0.589,1.466s0.169,1.055,0.169,1.552
		c0,0.765-0.057,1.56-0.169,2.394c-0.112,0.829-0.168,1.82-0.168,2.964c0,0.473,0.023,0.942,0.066,1.415
		c0.046,0.472,0.142,0.891,0.288,1.248c0.145,0.359,0.377,0.654,0.69,0.876c0.313,0.227,0.741,0.337,1.281,0.337
		c0.584,0,1.157-0.15,1.719-0.455c0.562-0.304,1.102-0.701,1.619-1.195c0.515-0.495,1.004-1.056,1.465-1.687
		c0.46-0.627,0.882-1.259,1.262-1.885c0.385-0.631,0.722-1.232,1.013-1.807c0.292-0.573,0.529-1.063,0.709-1.467
		c0.112-0.243,0.269-0.438,0.471-0.57c0.203-0.135,0.428-0.203,0.676-0.203c0.383,0,0.689,0.142,0.926,0.419
		c0.235,0.284,0.354,0.582,0.354,0.895c0,0.16-0.034,0.315-0.103,0.473c-0.087,0.182-0.269,0.557-0.539,1.131
		c-0.27,0.571-0.627,1.224-1.079,1.952c-0.449,0.733-0.971,1.501-1.567,2.309c-0.594,0.811-1.252,1.559-1.97,2.243
		c-0.721,0.686-1.496,1.246-2.325,1.687c-0.833,0.438-1.708,0.655-2.63,0.655c-0.987,0-1.792-0.174-2.41-0.521
		c-0.617-0.35-1.113-0.816-1.483-1.399c-0.371-0.585-0.623-1.259-0.758-2.023c-0.136-0.764-0.204-1.562-0.204-2.394
		c0-1.099,0.058-2.115,0.17-3.048c0.11-0.934,0.169-1.658,0.169-2.175c0-0.563-0.051-0.988-0.152-1.28
		c-0.101-0.294-0.227-0.5-0.371-0.625c-0.146-0.123-0.287-0.19-0.421-0.201c-0.136-0.011-0.236-0.018-0.303-0.018
		c-0.541,0-1.106,0.297-1.703,0.893c-0.595,0.597-1.208,1.39-1.837,2.376c-0.628,0.99-1.274,2.112-1.938,3.372
		c-0.663,1.259-1.33,2.538-2.006,3.841c-0.383,0.722-0.701,1.315-0.96,1.788c-0.26,0.472-0.505,0.842-0.741,1.11
		c-0.236,0.271-0.468,0.462-0.692,0.574c-0.225,0.11-0.471,0.169-0.74,0.169c-0.583,0-1.029-0.203-1.332-0.606
		c-0.304-0.405-0.456-0.934-0.456-1.585c0-0.336,0.011-0.785,0.034-1.349c0.024-0.562,0.045-1.18,0.067-1.854
		c0.023-0.675,0.056-1.369,0.102-2.088c0.044-0.721,0.078-1.409,0.101-2.072c0.022-0.665,0.045-1.255,0.068-1.772
		c0.021-0.514,0.033-0.907,0.033-1.179c0-0.583-0.102-1.004-0.304-1.265c-0.201-0.257-0.438-0.386-0.709-0.386
		c-0.244,0-0.521,0.091-0.824,0.27c-0.303,0.178-0.657,0.528-1.062,1.046c-0.315,0.402-0.714,0.99-1.197,1.767
		c-0.481,0.775-0.993,1.637-1.533,2.581c-0.54,0.94-1.074,1.909-1.603,2.896c-0.527,0.991-0.98,1.877-1.364,2.663
		c-0.472,0.944-0.944,1.592-1.417,1.938c-0.471,0.349-0.932,0.523-1.38,0.523c-0.652,0-1.135-0.196-1.449-0.591
		c-0.316-0.394-0.472-0.916-0.472-1.567c0-0.067,0.017-0.473,0.05-1.213c0.035-0.741,0.072-1.646,0.117-2.714
		c0.047-1.066,0.096-2.207,0.154-3.423c0.054-1.213,0.104-2.346,0.15-3.402c0.021-0.563,0-1.077-0.067-1.55s-0.158-0.754-0.27-0.844
		c-0.181,0.046-0.535,0.462-1.063,1.248c-0.527,0.785-1.197,2.158-2.005,4.111c-0.112,0.248-0.281,0.437-0.506,0.575
		c-0.227,0.134-0.462,0.201-0.708,0.201c-0.382,0-0.685-0.131-0.911-0.391c-0.226-0.256-0.337-0.556-0.337-0.891
		c0-0.157,0.033-0.326,0.103-0.508c1.01-2.401,1.978-4.172,2.899-5.308c0.92-1.134,1.819-1.702,2.695-1.702
		c0.518,0,0.947,0.119,1.299,0.354c0.346,0.236,0.623,0.539,0.826,0.91c0.201,0.371,0.347,0.793,0.438,1.264
		c0.088,0.473,0.134,0.935,0.134,1.383c0,2-0.051,3.832-0.15,5.495C160.96,52.37,160.853,54.042,160.74,55.729z"/>
</g>
</svg>
